Coordinates
version=1
nRows=19
nColumns=24
inDegrees=yes

Units are S.I. units (second, meters, Newtons, ...)
Angles are in degrees.

endheader
time	pelvis_tilt	pelvis_list	pelvis_rotation	pelvis_tx	pelvis_ty	pelvis_tz	hip_flexion_r	hip_adduction_r	hip_rotation_r	knee_angle_r	ankle_angle_r	subtalar_angle_r	mtp_angle_r	hip_flexion_l	hip_adduction_l	hip_rotation_l	knee_angle_l	ankle_angle_l	subtalar_angle_l	mtp_angle_l	lumbar_extension	lumbar_bending	lumbar_rotation
      6.50000000	      4.38248921	      7.13640724	      8.70611386	      2.23559451	      0.88003133	     -0.36562469	     20.71223845	     -4.53934644	     -2.19286151	     -3.98463490	      8.11397721	      0.30506215	      0.00000000	    -24.05778038	     10.19396562	     18.17632663	     -3.40358686	     17.85410764	      1.65203894	      0.00000000	    -26.53153866	     -7.39385651	    -13.19693954
      6.51000000	      4.65100549	      7.09581286	      8.82316124	      2.24946692	      0.87923431	     -0.36602419	     20.57523986	     -4.24747048	     -2.62427118	     -5.44674361	      8.04561696	     -0.37863911	      0.00000000	    -24.54757415	      9.98808388	     16.45756271	     -4.75899777	     18.37786397	      4.14765594	      0.00000000	    -26.64275234	     -7.17033218	    -13.45107539
      6.52000000	      4.92199776	      7.06119831	      9.01399368	      2.26367828	      0.87861972	     -0.36649573	     20.24418616	     -3.96728180	     -2.62020052	     -6.78355714	      7.55858077	     -1.30586168	      0.00000000	    -24.96204905	      9.72833727	     14.79353699	     -6.26825076	     18.58299379	      6.53937738	      0.00000000	    -26.68939235	     -6.93207876	    -13.74338862
      6.53000000	      5.07657089	      6.99845542	      9.36514718	      2.27811354	      0.87812615	     -0.36711055	     19.88505629	     -3.70101755	     -2.30977528	     -8.00701114	      6.62456230	     -2.48158767	      0.00000000	    -25.04793499	      9.37649205	     13.09289285	     -8.14464716	     18.67201627	      9.01214701	      0.00000000	    -26.54430837	     -6.63940112	    -14.16942703
      6.54000000	      5.25120820	      6.90756221	      9.75480945	      2.29268075	      0.87796622	     -0.36771458	     19.43624006	     -3.39399374	     -1.70545225	     -9.18667580	      5.38028945	     -3.77054301	      0.00000000	    -25.00030702	      8.94064918	     11.55860019	    -10.24796929	     18.27299574	     11.23262579	      0.00000000	    -26.37778557	     -6.31364507	    -14.55174386
      6.55000000	      5.32087099	      6.79900160	     10.14304792	      2.30720464	      0.87799877	     -0.36825394	     19.16868154	     -3.07940943	     -1.00922707	    -10.51771031	      4.10405030	     -4.92702704	      0.00000000	    -24.60751769	      8.49182742	     10.17988581	    -12.69511943	     17.38619214	     13.11054582	      0.00000000	    -26.07182859	     -6.01704374	    -14.86019149
      6.56000000	      5.44077369	      6.64679264	     10.49846608	      2.32157135	      0.87842661	     -0.36875478	     18.95337492	     -2.71267795	     -0.35530000	    -12.04075992	      3.06287142	     -5.86031494	      0.00000000	    -24.03171204	      7.99971078	      9.04143951	    -15.44989575	     15.90562895	     14.57424106	      0.00000000	    -25.83403584	     -5.67009867	    -15.07324116
      6.57000000	      5.54164239	      6.46481991	     10.77524063	      2.33569018	      0.87909466	     -0.36920736	     18.92188091	     -2.31947668	      0.12745212	    -13.84599220	      2.59671723	     -6.42420744	      0.00000000	    -23.17187065	      7.53245137	      8.13495547	    -18.54059564	     13.73221820	     15.60159028	      0.00000000	    -25.59997925	     -5.31078670	    -15.15615581
      6.58000000	      5.65081831	      6.25558812	     10.91627969	      2.34952155	      0.87993810	     -0.36958189	     19.00481883	     -1.87831333	      0.52646726	    -15.85312504	      2.83186985	     -6.63911686	      0.00000000	    -22.04483992	      7.11232702	      7.34636199	    -21.95898552	     10.84328635	     16.30411042	      0.00000000	    -25.41512583	     -4.94099055	    -15.06406467
      6.59000000	      5.81466956	      5.98659835	     10.97438523	      2.36299808	      0.88092852	     -0.36993573	     19.06463161	     -1.37021246	      0.74504123	    -17.89056505	      3.58157317	     -6.64908108	      0.00000000	    -20.64293059	      6.64022328	      6.49662914	    -25.77263200	      7.43473387	     17.13819119	      0.00000000	    -25.35763466	     -4.48705245	    -14.85757633
      6.60000000	      5.98882667	      5.61902175	     10.99116507	      2.37611702	      0.88193291	     -0.37034156	     19.05352441	     -0.77609879	      0.79791793	    -19.76817702	      4.73440730	     -6.50500481	      0.00000000	    -18.95298450	      6.07966900	      5.71428464	    -29.90376468	      3.63813109	     18.03100244	      0.00000000	    -25.36956669	     -3.89970718	    -14.55606725
      6.61000000	      6.17285808	      5.11135850	     11.03372957	      2.38886844	      0.88291050	     -0.37086941	     18.88294545	     -0.07329545	      0.66280095	    -21.30385916	      6.06218467	     -6.31090046	      0.00000000	    -17.00650404	      5.36874590	      5.08268459	    -34.27438606	     -0.24135371	     19.04874859	      0.00000000	    -25.44379652	     -3.10986130	    -14.20864310
      6.62000000	      6.33753012	      4.47800780	     11.16780378	      2.40122777	      0.88383202	     -0.37157441	     18.54673719	      0.68881381	      0.25492302	    -22.42171140	      7.41124181	     -6.03648058	      0.00000000	    -14.82115884	      4.52454553	      4.70443425	    -38.78890841	     -3.83985335	     20.23492800	      0.00000000	    -25.55148412	     -2.13427058	    -13.87836356
      6.63000000	      6.47392785	      3.64901157	     11.41392513	      2.41328709	      0.88467713	     -0.37242686	     18.00574109	      1.62168213	     -0.21973797	    -23.00403425	      8.62303204	     -5.93982200	      0.00000000	    -12.43661151	      3.50018101	      4.62947812	    -43.33919722	     -6.71217227	     21.52007818	      0.00000000	    -25.62937545	     -0.90750723	    -13.50287513
      6.64000000	      6.57676616	      2.74324133	     11.78181122	      2.42504279	      0.88551994	     -0.37342696	     17.30913446	      2.57601701	     -0.90250733	    -23.15072709	      9.67844297	     -5.82221836	      0.00000000	     -9.92056886	      2.45117322	      4.89961143	    -47.79727765	     -8.65281459	     22.84726415	      0.00000000	    -25.68546667	      0.42268971	    -13.14425626
      6.65000000	      6.64516398	      1.83100262	     12.22752435	      2.43656551	      0.88642707	     -0.37449883	     16.49096062	      3.50380037	     -1.72195565	    -22.94193009	     10.60412386	     -5.64453532	      0.00000000	     -7.33964051	      1.49358352	      5.47666125	    -52.04270366	     -9.56459250	     24.08743417	      0.00000000	    -25.70366987	      1.74673228	    -12.77297702
      6.66000000	      6.69381236	      0.98420866	     12.67938838	      2.44793041	      0.88748692	     -0.37553376	     15.56748217	      4.36600003	     -2.57037235	    -22.46851425	     11.40695924	     -5.38930047	      0.00000000	     -4.77620332	      0.72602900	      6.25799117	    -55.97177406	     -9.49742148	     25.07733203	      0.00000000	    -25.69503557	      2.94812077	    -12.33965275
      6.67000000	      6.72045725	      0.26238465	     13.04776559	      2.45921462	      0.88874809	     -0.37641656	     14.57103035	      5.13194994	     -3.32327290	    -21.82620476	     12.14240424	     -5.00548614	      0.00000000	     -2.28830858	      0.21083674	      7.08904268	    -59.50318809	     -8.62476388	     25.64890527	      0.00000000	    -25.65633939	      3.92521756	    -11.82106123
      6.68000000	      6.77265064	     -0.31077565	     13.23140250	      2.47046113	      0.89026233	     -0.37701167	     13.49733066	      5.80707861	     -3.90653240	    -21.12325902	     12.77121538	     -4.64020340	      0.00000000	      0.03067366	     -0.07477359	      7.78206365	    -62.58833698	     -7.16211362	     25.65937639	      0.00000000	    -25.66449686	      4.62766076	    -11.12022727
